<?xml version="1.0" encoding="UTF-8" standalone="no"?>
<!-- Created with Inkscape (http://www.inkscape.org/) -->

<svg
   width="512"
   height="512"
   viewBox="0 0 135.46666 135.46667"
   version="1.1"
   id="svg1"
   xmlns="http://www.w3.org/2000/svg"
   xmlns:svg="http://www.w3.org/2000/svg">
  <defs
     id="defs1" />
  <g
     id="layer1">
    <rect
       style="display:none;fill:#fce38a;fill-opacity:1;stroke-width:264.583"
       id="rect1"
       width="154.84279"
       height="163.35365"
       x="-7.5866909"
       y="-11.411248" />
    <g
       id="SvgjsG1014"
       featurekey="cWd8YO-0"
       transform="matrix(1.1040641,0,0,1.1040641,12.523407,9.1779361)"
       fill="#111111"
       style="stroke-width:0.259487">
      <g
         id="g3"
         style="stroke-width:0.259487">
        <path
           d="m 94.9,24.4 c 0,-2.1 -0.3,-4.9 -2.1,-6.6 -1,-0.9 -2.3,-1.3 -3.7,-1.1 -0.8,0 -5,-0.2 -7.3,0 -1.9,0.1 -12.5,-0.6 -16.5,-0.8 l -4.9,-1 C 56.2,12 51.9,12.8 48,14 47.8,13.9 47.6,13.8 47.4,13.8 l -1.5,-0.2 c -1.6,-0.2 -2.5,-0.5 -3.5,-0.8 -1.7,-0.6 -3.1,-1 -6.3,-0.1 -2.7,0.8 -3.3,2.1 -4,3.4 -0.3,0.7 -0.7,1.3 -1.4,2.2 l -14,15.3 c -1.5,1.6 -3.5,2.6 -5.5,3.6 -2.3,1.2 -4.5,2.3 -5.4,4.3 -0.7,1.8 -1.4,6.7 0.8,9.1 -0.4,2.2 -0.2,4.8 0,6.6 0.1,1.2 0.2,2.4 0.2,3.5 v 18.7 c 0,1 -0.3,1.8 -0.6,2.6 -0.5,1.4 -1.3,3.3 1.1,5.4 2.7,2.3 4.6,2 6.4,1.6 1,-0.2 2.1,-0.4 3.6,-0.3 l 36.5,3.8 c 1.6,0.2 2.5,0.5 3.5,0.8 1,0.3 1.9,0.6 3.1,0.6 0.9,0 1.9,-0.1 3.2,-0.5 2.7,-0.8 3.3,-2.1 4,-3.4 0.3,-0.7 0.7,-1.3 1.4,-2.2 L 87.8,67.4 c 0.8,-0.9 1.4,-1.3 2,-1.7 1.1,-0.7 2.1,-1.5 3,-3.9 0.8,-2 0.5,-3.6 0.3,-5.2 -0.1,-0.6 -0.2,-1.2 -0.2,-1.9 -0.1,-1.4 -0.1,-2.8 -0.1,-4.1 0,-2 0,-4.2 -0.2,-6.3 -0.1,-1 0,-2 0.1,-3 0.1,-1 0.2,-2.1 0.1,-3.3 -0.1,-1.3 -0.2,-2.6 -0.4,-3.8 0.9,-1 1.5,-2.6 1.7,-3.3 0.7,-2.1 0.8,-4.4 0.8,-6.5 z M 61.4,19.7 c 3.2,3.7 4.6,6.2 4.2,7.6 -0.2,0.6 -0.9,1.2 -2.1,1.5 l -14.6,4.5 c -3,0.9 -5.4,0.4 -7.5,-1.8 0,0 0,0 0,0 l -0.1,-0.1 c -1.6,-1.7 -2.8,-4 -3.8,-6.1 l -0.3,-0.7 c -0.7,-1.3 -0.8,-2.3 -0.5,-3 0.6,-1.4 3.4,-2.1 5.8,-2.8 0.8,-0.2 1.7,-0.5 2.5,-0.7 0.6,-0.2 1.3,-0.4 1.9,-0.7 2.5,-0.9 4.8,-1.7 7.1,-1.7 2.4,0.2 4.9,1.2 7.4,4 z M 8.6,42.7 C 9,41.8 10.7,40.9 12.5,40 14.6,38.9 17,37.7 18.9,35.7 L 33,20.4 c 1,-1.1 1.5,-2.1 1.9,-2.9 0.5,-1 0.7,-1.4 2.1,-1.8 2.3,-0.7 3,-0.4 4.4,0.1 0.2,0.1 0.4,0.1 0.7,0.2 -0.2,0 -0.4,0.1 -0.5,0.1 -3.2,0.9 -6.5,1.8 -7.7,4.4 -0.7,1.6 -0.5,3.4 0.6,5.6 l 0.3,0.7 c 1.1,2.3 2.4,4.8 4.3,6.8 l 0.1,0.1 c 2,2.1 4.3,3.1 7,3.1 1.1,0 2.3,-0.2 3.5,-0.6 l 14.6,-4.5 c 2.3,-0.7 3.6,-1.9 4.1,-3.6 0.8,-2.9 -1.4,-6.3 -4,-9.4 l 0.3,0.1 c 0.1,0 0.1,0 0.2,0 1.5,0.1 14.6,1 17.1,0.8 2.3,-0.2 7,0 7,0 0.1,0 0.2,0 0.2,0 0.9,-0.1 1.3,0.2 1.5,0.4 0.7,0.7 1.1,2.3 1.1,4.3 0,1.9 -0.1,4 -0.6,6 -0.2,0.7 -0.9,2 -1.3,2.3 0,0 0,0 0,0 -0.2,0 -0.7,-0.3 -1,-0.5 -1.1,-0.6 -2.6,-1.5 -4.5,-0.5 -3,1.7 -3.2,5.8 -3.2,8.2 V 40 c 0,1.2 -0.1,2.4 -0.1,3.6 C 81,48.2 80.9,53 79.6,57.4 78.9,59.6 78,61.2 77.4,61.7 77.3,61.5 77,61.2 76.8,60.4 76.3,59 76.5,57.4 76.7,55.7 76.8,55 76.9,54.3 76.9,53.6 77.1,49.1 74.4,47.7 71.6,47 71,46.8 70.2,46.7 69.4,46.8 c -1.7,0.4 -2.9,1.9 -4,3.4 -0.6,0.8 -1.2,1.5 -1.7,1.9 -1.6,1.1 -3.4,1.3 -5.1,0.4 -0.2,-0.1 -0.4,-0.2 -0.6,-0.3 -1.1,-0.6 -2.5,-1.3 -4,-1.1 -3,0.4 -3.7,3.3 -4,4.5 0,0 0,0 -1.6,7.1 -0.6,4.3 -1.4,7.8 -3.4,10.7 -0.7,1 -1.9,2.2 -3,1.9 C 40.5,75 38.3,71.6 37.9,69.4 37,64.6 36.7,59.8 37.1,55.3 V 55 c 0.1,-1 0.2,-2.1 0,-3.2 -0.6,-3.2 -3.6,-5.2 -6.4,-5.5 -2.5,-0.3 -5.2,0.7 -6.9,2.6 -0.8,1 -1.4,2 -1.9,3.1 -0.1,0.3 -0.3,0.5 -0.4,0.8 -0.5,0.9 -1.1,2 -2,2.5 -0.8,0.4 -1.5,0.1 -3,-1.6 C 14.8,51.8 12.8,49.8 9.9,49.1 9.9,49 9.8,49 9.6,49 9.4,49 9.1,48.9 9,48.8 7.9,48.1 8,44.3 8.6,42.7 Z m 49.7,47.9 c -1,-0.3 -2.2,-0.8 -4.1,-1 L 17.7,85.8 c -2,-0.2 -3.4,0.1 -4.5,0.3 C 11.6,86.4 11,86.6 9.4,85.2 8.6,84.5 8.6,84.4 9.1,83.1 9.4,82.2 9.9,81 9.9,79.4 V 60.8 C 9.9,59.6 9.8,58.3 9.7,57 9.6,55.8 9.4,53.9 9.5,52.1 c 1.9,0.5 3.5,2.1 4.9,3.6 1.2,1.4 3.5,3.9 6.6,2.2 1.6,-0.9 2.6,-2.5 3.3,-3.7 0.1,-0.3 0.3,-0.5 0.4,-0.8 0.5,-0.9 0.9,-1.8 1.5,-2.5 1,-1.2 2.7,-1.8 4.2,-1.6 1.6,0.2 3.5,1.3 3.8,3.1 0.1,0.7 0.1,1.5 0,2.4 v 0.3 c -0.4,4.8 -0.1,9.8 0.8,15 0.5,2.6 3.1,7.6 6.4,8.3 0.3,0.1 0.6,0.1 0.9,0.1 1.8,0 3.7,-1.2 5.2,-3.3 2.3,-3.4 3.2,-7.2 4,-11.4 0,0 1.5,-6.9 1.5,-7.1 0.4,-1.8 0.8,-2.1 1.4,-2.2 0.7,-0.1 1.5,0.3 2.3,0.8 0.2,0.1 0.4,0.2 0.6,0.3 0.8,0.4 1.7,0.7 2.5,0.8 l 0.1,1.1 c 0.5,3.7 1,7.5 0.8,11.2 -0.1,1.3 -0.2,2.7 -0.3,4 -0.3,2.7 -0.5,5.5 -0.3,8.3 0.1,1.2 0.3,2.4 0.6,3.6 0.4,2.3 0.9,4.5 0.3,6.7 C 60,91.2 59.3,91 58.3,90.6 Z M 90,61 c -0.6,1.6 -1.1,1.9 -1.9,2.5 -0.6,0.5 -1.5,1 -2.5,2.1 L 66.8,86 c -1,1.1 -1.5,2.1 -1.9,2.9 -0.2,0.4 -0.4,0.7 -0.6,1 0.1,-2.1 -0.2,-4.1 -0.6,-6 -0.2,-1.1 -0.4,-2.2 -0.5,-3.3 -0.2,-2.5 0,-5.1 0.3,-7.7 0.1,-1.3 0.3,-2.7 0.3,-4.1 C 64,64.9 63.5,60.9 63,57.1 l -0.1,-0.9 c 0.9,-0.3 1.8,-0.7 2.7,-1.3 0.8,-0.6 1.6,-1.6 2.3,-2.5 0.7,-0.9 1.6,-2.2 2.2,-2.3 0.2,0 0.7,0.1 0.8,0.1 2.5,0.7 3.2,1.4 3.1,3.6 0,0.6 -0.1,1.3 -0.2,1.9 -0.2,1.9 -0.5,4 0.3,6 0.8,2.2 2,3.3 3.5,3.3 2.8,-0.1 4.5,-4.6 5.1,-6.5 1.5,-4.8 1.6,-9.8 1.7,-14.6 0,-1.2 0,-2.3 0.1,-3.5 v -0.2 c 0.1,-1.9 0.2,-4.9 1.7,-5.7 0.3,-0.2 0.6,-0.1 1.5,0.5 0.5,0.3 1.3,0.7 2.1,0.8 0.1,0.9 0.2,1.9 0.3,2.8 0.1,0.9 0,1.8 -0.1,2.8 -0.1,1.1 -0.2,2.3 -0.1,3.6 0.2,2 0.2,3.9 0.2,5.9 0,1.4 0,2.8 0.1,4.3 0,0.8 0.1,1.5 0.2,2.2 0,1.2 0.1,2.3 -0.4,3.6 z"
           id="path1"
           style="stroke-width:0.259487" />
        <circle
           transform="matrix(0.03529893,-0.9994,0.9994,0.03529893,-52.6896,98.1622)"
           cx="24.5"
           cy="76.400002"
           id="ellipse1"
           r="1.5"
           style="stroke-width:0.259487" />
        <circle
           transform="matrix(0.03529893,-0.9994,0.9994,0.03529893,-63.1023,95.6235)"
           cx="18"
           cy="80.5"
           id="ellipse2"
           r="1.5"
           style="stroke-width:0.259487" />
        <circle
           transform="matrix(0.03529821,-0.9994,0.9994,0.03529821,-55.5767,86.0534)"
           cx="16.799999"
           cy="71.800003"
           id="ellipse3"
           r="1.5"
           style="stroke-width:0.259487" />
      </g>
    </g>
  </g>
</svg>
