<?xml version="1.0" standalone="no"?>
<!DOCTYPE svg PUBLIC "-//W3C//DTD SVG 20010904//EN"
 "http://www.w3.org/TR/2001/REC-SVG-20010904/DTD/svg10.dtd">
<svg version="1.0" xmlns="http://www.w3.org/2000/svg"
 width="512.000000pt" height="512.000000pt" viewBox="0 0 512.000000 512.000000"
 preserveAspectRatio="xMidYMid meet">
<metadata>
Created by potrace 1.14, written by Peter Selinger 2001-2017
</metadata>
<g transform="translate(0.000000,512.000000) scale(0.100000,-0.100000)"
fill="#000000" stroke="none">
<path d="M2002 4244 c-100 -26 -132 -54 -200 -166 -25 -41 -156 -194 -352
-407 -333 -364 -338 -368 -530 -467 -117 -60 -193 -129 -211 -194 -7 -25 -13
-90 -14 -145 0 -87 3 -106 25 -150 20 -41 25 -66 27 -140 1 -49 4 -327 8 -616
l7 -526 -26 -83 c-39 -121 -21 -177 77 -243 83 -56 118 -63 236 -43 l101 17
632 -66 c925 -96 992 -104 1066 -128 93 -30 225 -29 304 2 63 24 99 61 156
158 48 80 823 921 912 989 73 56 124 136 136 214 4 24 2 114 -5 200 -7 85 -13
324 -14 530 l-3 375 28 50 c47 87 62 164 62 320 1 83 -4 156 -11 180 -19 61
-62 121 -104 144 -36 20 -55 22 -361 26 -588 8 -897 39 -1001 99 -99 59 -255
70 -402 30 -70 -19 -163 -9 -305 32 -94 27 -160 29 -238 8z m183 -121 l49 -16
-100 -33 c-188 -60 -254 -123 -254 -240 1 -116 115 -338 240 -465 98 -99 154
-123 285 -122 85 1 108 7 444 112 386 120 420 135 459 211 45 87 17 193 -92
344 l-57 79 123 -7 c68 -4 191 -11 273 -16 83 -5 268 -10 413 -10 151 0 271
-4 281 -10 26 -13 51 -81 58 -154 12 -130 -28 -340 -72 -376 -9 -7 -30 -2 -76
20 -35 16 -75 30 -89 30 -41 -1 -106 -36 -135 -74 -54 -70 -63 -127 -74 -452
-14 -396 -40 -553 -117 -694 -15 -28 -33 -50 -40 -50 -8 0 -21 25 -30 57 -13
46 -15 73 -8 142 5 47 9 120 9 161 -1 121 -47 187 -160 229 -138 52 -185 37
-296 -94 -98 -117 -115 -128 -192 -133 -56 -4 -72 0 -139 31 -42 20 -91 39
-110 42 -77 15 -158 -35 -192 -117 -18 -42 -78 -301 -100 -433 -34 -196 -93
-341 -168 -417 -31 -31 -45 -38 -77 -38 -34 0 -45 6 -85 51 -25 27 -57 74 -71
102 -53 109 -80 356 -70 629 8 220 0 260 -67 328 -63 65 -136 95 -233 95 -147
-1 -233 -61 -320 -225 -62 -117 -92 -150 -136 -150 -28 0 -45 12 -114 84 -91
95 -165 147 -246 171 -33 11 -61 26 -69 39 -18 29 -25 152 -10 205 15 57 37
76 180 152 66 35 145 82 175 104 65 48 665 693 715 770 19 30 44 69 55 87 15
24 33 36 75 50 70 22 105 22 165 1z m638 -23 c111 -35 217 -128 322 -285 61
-90 81 -147 66 -184 -7 -16 -27 -36 -44 -45 -18 -9 -180 -62 -362 -118 -280
-86 -341 -101 -400 -102 -88 -1 -151 30 -218 104 -82 91 -188 294 -190 364 -2
56 47 96 161 130 48 15 157 50 242 78 259 86 310 93 423 58z m1333 -792 c38
-17 70 -32 72 -33 3 -3 17 -773 17 -945 0 -109 -22 -150 -123 -234 -111 -92
-885 -938 -922 -1008 -17 -32 -35 -60 -40 -63 -6 -4 -10 19 -10 58 0 35 -9
113 -19 173 -30 173 -33 246 -16 427 19 215 19 415 -3 598 l-18 147 62 30 c43
21 77 48 110 88 118 139 123 144 157 137 51 -9 99 -36 121 -66 18 -25 20 -39
16 -105 -2 -42 -5 -124 -5 -182 0 -95 3 -111 28 -162 33 -68 71 -98 122 -98
69 0 114 40 168 147 73 144 104 324 117 693 5 151 12 291 16 310 9 44 40 107
56 113 21 9 23 8 94 -25z m-2351 -607 c44 -20 95 -72 96 -99 0 -9 2 -145 3
-302 4 -339 20 -454 81 -576 46 -94 131 -187 190 -210 156 -59 321 109 400
408 13 51 45 192 70 313 26 121 53 230 61 243 21 32 59 28 145 -13 41 -19 82
-35 91 -35 26 0 33 -26 52 -192 20 -186 20 -282 -1 -543 -17 -221 -14 -294 22
-485 20 -104 20 -239 0 -246 -8 -3 -58 8 -112 24 -54 17 -111 33 -128 36 -55
10 -1573 166 -1616 166 -24 0 -79 -5 -124 -12 -97 -14 -119 -9 -167 35 l-37
34 25 79 26 79 -6 560 c-4 308 -7 575 -7 594 0 18 2 35 5 38 14 15 103 -47
182 -127 49 -50 107 -99 130 -110 112 -55 216 7 313 185 24 44 56 93 70 109
57 63 158 83 236 47z"/>
<path d="M1149 1826 c-19 -9 -24 -19 -24 -51 0 -34 4 -41 28 -49 48 -17 89 23
72 70 -12 33 -44 46 -76 30z"/>
<path d="M1450 1621 c-32 -61 30 -118 84 -78 21 16 24 60 6 82 -18 22 -77 19
-90 -4z"/>
<path d="M1182 1458 c-16 -16 -16 -70 0 -86 17 -17 64 -15 82 4 20 20 20 58 0
78 -18 19 -65 21 -82 4z"/>
</g>
</svg>
